<svg xmlns="http://www.w3.org/2000/svg" xmlns:xlink="http://www.w3.org/1999/xlink" version="1.1" x="0px" y="0px" viewBox="0 0 24 24" enable-background="new 0 0 24 24" xml:space="preserve"><g><path d="M7.452,9.997c-0.906,0-1.617,0.935-1.617,2.127c0,1.193,0.711,2.128,1.617,2.128s1.617-0.935,1.617-2.128   C9.069,10.931,8.358,9.997,7.452,9.997z M7.452,13.451c-0.436,0-0.816-0.62-0.816-1.327c0-0.719,0.374-1.326,0.816-1.326   s0.816,0.607,0.816,1.326C8.268,12.831,7.887,13.451,7.452,13.451z"></path><path d="M16.547,9.997c-0.906,0-1.616,0.935-1.616,2.127c0,1.193,0.71,2.128,1.616,2.128s1.617-0.935,1.617-2.128   C18.165,10.931,17.454,9.997,16.547,9.997z M16.547,13.451c-0.442,0-0.815-0.607-0.815-1.327c0-0.719,0.373-1.326,0.815-1.326   s0.816,0.607,0.816,1.326C17.364,12.843,16.99,13.451,16.547,13.451z"></path><path d="M6.071,8.176c1.558,0.177,2.864,1.181,3.252,2.498c0.052,0.174,0.211,0.287,0.384,0.287c0.037,0,0.075-0.006,0.113-0.017   c0.212-0.063,0.333-0.285,0.271-0.497c-0.478-1.622-2.057-2.854-3.93-3.066C5.948,7.352,5.744,7.514,5.718,7.734   C5.694,7.954,5.851,8.152,6.071,8.176z"></path><path d="M14.18,10.945c0.038,0.011,0.076,0.017,0.113,0.017c0.173,0,0.332-0.113,0.384-0.287c0.388-1.318,1.694-2.321,3.252-2.498   c0.22-0.024,0.377-0.223,0.353-0.442c-0.025-0.22-0.229-0.383-0.442-0.353c-1.873,0.212-3.452,1.444-3.93,3.066   C13.847,10.66,13.968,10.882,14.18,10.945z"></path><path d="M8.953,17.062c0.079,0.082,0.185,0.124,0.29,0.124c0.1,0,0.198-0.037,0.276-0.11c0.668-0.637,1.605-0.986,2.617-0.943   c0.896,0.035,1.729,0.369,2.344,0.942c0.161,0.149,0.414,0.141,0.565-0.021c0.15-0.161,0.142-0.414-0.021-0.565   c-0.755-0.703-1.77-1.114-2.857-1.155c-1.25-0.063-2.377,0.378-3.201,1.162C8.807,16.649,8.8,16.902,8.953,17.062z"></path><path d="M12,22.175c4.745,0,8.731-3.27,9.851-7.672c1.182-0.128,2.112-1.195,2.112-2.504c0-1.308-0.93-2.375-2.112-2.503   C20.731,5.095,16.745,1.825,12,1.825s-8.731,3.27-9.85,7.672C0.967,9.625,0.038,10.692,0.038,12c0,1.309,0.93,2.376,2.112,2.504   C3.269,18.905,7.255,22.175,12,22.175z M23.162,12c0,0.793-0.482,1.457-1.134,1.659c0.089-0.541,0.148-1.093,0.148-1.659   c0-0.566-0.058-1.117-0.147-1.658C22.679,10.544,23.162,11.206,23.162,12z M12,2.625c5.17,0,9.375,4.205,9.375,9.374   c0,5.17-4.205,9.375-9.375,9.375c-5.169,0-9.374-4.205-9.374-9.375C2.625,6.831,6.831,2.625,12,2.625z M0.838,12   c0-0.793,0.482-1.456,1.134-1.658C1.883,10.882,1.825,11.434,1.825,12c0,0.566,0.058,1.118,0.148,1.659   C1.321,13.456,0.838,12.793,0.838,12z"></path></g></svg>