<svg xmlns="http://www.w3.org/2000/svg" xmlns:xlink="http://www.w3.org/1999/xlink" version="1.1" x="0px" y="0px" viewBox="0 0 164 164" enable-background="new 0 0 164 164" xml:space="preserve"><path fill-rule="evenodd" clip-rule="evenodd" d="M74.153,81.747c-5,0-9.051-4.052-9.051-9.051c0-4.999,4.052-9.051,9.051-9.051  s9.051,4.052,9.051,9.051S79.151,81.747,74.153,81.747L74.153,81.747z M100.387,157.744c1.255,7.924,49.543,8.834,50.71-0.246  c0.387-3.014,0.642-6.019,1.152-9.03c1.722-10.153,10.576-18.062,9.578-56.965c-0.383-14.941-0.055-28.385-0.718-31.703  c-0.316-6.882-12.422-7.104-12.277-0.29c-0.571,8.626-0.404,18.039-0.539,29.013c-0.785,0.032-1.206,0.029-1.992,0.008  c0.035-13.261-0.448-30.908-0.885-38.741c-0.423-7.601-13.332-8.759-13.581,0.239c-0.257,9.25-0.34,25.282-0.224,37.443  c-0.663,0.005-1.3-0.004-1.961-0.063c-0.2-13.515-0.507-34.276-1.067-43.529c-0.522-8.622-13.715-8.843-14.078,0.107  c-0.423,10.383-0.371,30.565-0.062,42.251c-0.653-0.003-1.539,0.023-2.19-0.008c-0.329-11.597-0.772-26.098-1.274-35.745  c-0.456-8.793-15.199-9.63-15.642,0.357c-0.468,10.579-0.113,24.448-0.104,35.035c0.217,12.494,0.22,17.518,0.588,25.739  c-2.165-5.445-9.466-11.186-15.56-12.857c-4.456-0.813-13.461-1.754-14.033,4.095c-0.193,1.978,2.513,4.801,5.641,7.013  c3.573,2.525,6.405,6.886,8.394,12.397c5.368,13.741,9.576,17.604,15.591,22.62c1.934,1.873,3.817,3.916,4.037,6.455  C100.097,153.721,100.036,155.528,100.387,157.744L100.387,157.744z M60.706,98.884c0.304-0.68,0.74-1.245,1.406-1.65  c-9.056-4.451-15.289-13.765-15.288-24.537c0-15.093,12.235-27.329,27.329-27.329c6.613,0,12.676,2.349,17.402,6.257  c0.03-0.863,0.056-1.732,0.11-2.594c-4.895-3.629-10.952-5.777-17.513-5.777c-16.259,0-29.441,13.182-29.441,29.441  C44.712,84.003,50.823,94.019,60.706,98.884L60.706,98.884z M1.775,72.697c0,44.513,39.456,77.716,82.505,71.671  c-2.937-3.842-5.82-8.953-9.086-16.837c-2.497-6.508-5.969-11.623-10.278-14.54c-3.772-2.554-7.058-5.846-6.876-8.201  c0.086-1.119,0.438-2.034,0.985-2.78C48.42,96.526,41.17,85.458,41.17,72.696c0-18.217,14.767-32.983,32.983-32.983  c6.788,0,13.095,2.052,18.339,5.567c2.954-7.234,12.839-7.999,18.109-3.45c2.298-11.334,19.193-10.548,21.756-0.544  c1.951-0.978,4.21-1.363,6.426-1.188C126.858,16.502,102.398,0.32,74.153,0.32C34.18,0.32,1.775,32.725,1.775,72.697z"></path></svg>