<svg xmlns="http://www.w3.org/2000/svg" xmlns:xlink="http://www.w3.org/1999/xlink" version="1.1" x="0px" y="0px" viewBox="0 0 24 24" enable-background="new 0 0 24 24" xml:space="preserve"><g><path fill-rule="evenodd" clip-rule="evenodd" d="M21.851,9.497C20.731,5.095,16.746,1.825,12,1.825   c-4.745,0-8.731,3.27-9.851,7.672C0.968,9.625,0.038,10.691,0.038,12c0,1.309,0.93,2.376,2.112,2.503   c1.12,4.402,5.105,7.672,9.85,7.672s8.731-3.27,9.85-7.672c1.182-0.128,2.111-1.195,2.111-2.503   C23.962,10.692,23.033,9.625,21.851,9.497z M0.838,12c0-0.793,0.483-1.457,1.135-1.659C1.884,10.882,1.826,11.434,1.826,12   c0,0.566,0.058,1.118,0.148,1.659C1.321,13.457,0.838,12.794,0.838,12z M12,21.375c-5.169,0-9.374-4.206-9.374-9.375   c0-5.169,4.205-9.375,9.374-9.375S21.375,6.831,21.375,12C21.375,17.169,17.169,21.375,12,21.375z M22.028,13.659   c0.089-0.541,0.148-1.093,0.148-1.659c0-0.566-0.058-1.117-0.147-1.658c0.651,0.202,1.134,0.865,1.134,1.658   C23.162,12.793,22.679,13.456,22.028,13.659z"></path><path fill-rule="evenodd" clip-rule="evenodd" d="M15.635,14.496H8.402c-1.253,0-2.255,1.002-2.255,2.256   c0,1.253,1.002,2.255,2.255,2.255h7.233c1.253,0,2.255-1.002,2.255-2.255C17.89,15.498,16.888,14.496,15.635,14.496z M8.832,18.113   h-0.43c-0.644,0-1.073-0.358-1.253-0.896h1.684V18.113z M8.868,16.321H7.148c0.18-0.573,0.716-0.894,1.253-0.894h0.466V16.321z    M11.553,18.113h-1.79v-0.896h1.79V18.113z M11.553,16.321h-1.79v-0.894h1.79V16.321z M14.274,18.113h-1.826v-0.896h1.826V18.113z    M14.274,16.321h-1.826v-0.894h1.826V16.321z M15.635,18.113h-0.466v-0.896h1.72C16.709,17.754,16.243,18.113,15.635,18.113z    M15.168,16.321v-0.894h0.466c0.608,0,1.074,0.322,1.253,0.894H15.168z"></path><path fill-rule="evenodd" clip-rule="evenodd" d="M16.995,9.985c0-0.466-0.43-0.895-0.896-0.895c-0.536,0-0.931,0.429-0.931,0.895   c0,0.5,0.395,0.894,0.931,0.894C16.565,10.879,16.995,10.485,16.995,9.985z"></path><polygon fill-rule="evenodd" clip-rule="evenodd" points="8.295,6.368 5.287,8.373 5.824,9.125 8.796,7.085  "></polygon><path fill-rule="evenodd" clip-rule="evenodd" d="M7.972,9.09c-0.501,0-0.93,0.429-0.93,0.895c0,0.5,0.43,0.894,0.93,0.894   c0.466,0,0.895-0.394,0.895-0.894C8.868,9.518,8.438,9.09,7.972,9.09z"></path><polygon fill-rule="evenodd" clip-rule="evenodd" points="15.742,6.368 15.24,7.085 18.213,9.125 18.714,8.373  "></polygon></g></svg>