<svg xmlns="http://www.w3.org/2000/svg" xmlns:xlink="http://www.w3.org/1999/xlink" version="1.1" x="0px" y="0px" viewBox="0 0 100 100" enable-background="new 0 0 100 100" xml:space="preserve"><g><g><path d="M69.795,97.417c-7.06,0-14.057-3.649-18.717-9.764c-0.525-0.689-0.728-1.572-0.553-2.422s0.708-1.582,1.463-2.009    c2.368-1.347,8.696-5.915,9.489-10.784c0.339-2.082-0.386-4.086-2.216-6.129c-1.031-1.15-2.51-1.733-4.394-1.733    c-2.553,0-5.511,1.005-8.329,2.96C46.045,67.879,45.459,68,44.858,68c-0.01,0-0.118,0-0.128,0c-2.506,0-4.321-0.67-5.397-2.133    c-1.008-1.371-1.018-2.94-0.691-3.984c0.155-0.497,0.437-0.926,0.816-1.281c2.311-2.155,2.418-5.791,2.417-6.461    c-0.447-2.667-3.914-4.269-3.949-4.284l-8.85-3.998c-0.726-0.328-1.291-0.929-1.571-1.674c-0.281-0.744-0.255-1.569,0.073-2.294    l0.09-0.197L9.139,33.319c-1.51-0.683-2.181-2.459-1.498-3.969l8.534-18.883c0.144-0.318,0.342-0.609,0.586-0.859    c1.048-1.075,3.111-4.043,4.166-5.663c0.81-1.241,2.403-1.703,3.748-1.097l3.162,1.428c0.727,0.328,1.292,0.931,1.573,1.677    c0,0-0.001-0.001,0-0.001s0.284,0.669,1.13,2.042c0.603,0.979,1.825,2.33,2.525,3.062l43.848,19.818    c0.729,0.329,1.295,0.935,1.575,1.684c0.279,0.749,0.249,1.578-0.085,2.304c-0.605,1.347-1.107,3.782-0.418,4.629l0.408,0.493    c16.707,20.042,15.72,34.193,11.949,42.535C86.063,91.987,78.574,97.417,69.795,97.417z M57.997,86.414    c3.335,3.174,7.571,5.003,11.798,5.003c6.411,0,11.767-4.037,15.081-11.368c4.394-9.723,0.559-22.248-11.091-36.223l-0.456-0.55    c-2.031-2.499-1.854-5.729-1.33-8.038L30.08,16.292c-0.327-0.148-0.624-0.353-0.879-0.605c-0.256-0.254-2.537-2.542-3.771-4.546    c-0.42-0.683-0.74-1.245-0.98-1.695c-0.902,1.293-2.05,2.864-3.01,3.938l-7.098,15.704l18.53,8.375    c0.726,0.328,1.291,0.931,1.571,1.675c0.281,0.745,0.255,1.57-0.073,2.295l-0.09,0.198l6.066,2.743    c0.227,0.097,6.705,2.955,7.498,9.147c0.011,0.079,0.018,0.159,0.021,0.239c0.009,0.196,0.137,3.483-1.324,6.907    c2.799-1.362,5.664-2.091,8.325-2.091c3.61,0,6.675,1.289,8.862,3.729c3.837,4.282,4.111,8.409,3.666,11.116    C66.437,79.258,61.369,83.906,57.997,86.414z"></path></g><g><path d="M74.688,37.444l7.068,0.789c0,0,2.175-3.102,5.841-1.445c3.666,1.658-7.011,3.785-7.139,9.689"></path><path d="M80.46,49c-0.021,0-0.044,0-0.066,0c-1.656,0-2.97-1.17-2.934-2.826c0.047-2.187,0.961-3.838,2.184-5.277l-5.288-0.531    c-1.646-0.184-2.832-1.638-2.648-3.285c0.184-1.646,1.666-2.821,3.314-2.634l5.621,0.635c1.756-1.443,4.664-2.625,8.19-1.032    c2.047,0.926,2.457,2.425,2.521,3.236c0.183,2.354-1.777,3.638-3.673,4.877c-1.767,1.156-4.187,2.502-4.223,4.14    C83.423,47.938,82.087,49,80.46,49z"></path></g><g><path d="M71.002,34.495c-0.416,0-0.837-0.086-1.234-0.266L56.02,28.014c-1.233-0.558-1.94-1.872-1.727-3.208    c0.213-1.336,1.295-2.364,2.641-2.509l7.889-0.85c1.005-0.102,1.987,0.294,2.631,1.068l5.859,7.064    c0.892,1.075,0.923,2.624,0.076,3.734C72.807,34.078,71.915,34.495,71.002,34.495z"></path></g><g><path d="M31.313,16.559c-0.413,0-0.833-0.086-1.233-0.267l-10.267-4.641c-1.51-0.683-2.181-2.46-1.498-3.97    c0.682-1.509,2.461-2.18,3.969-1.498l10.267,4.641c1.51,0.683,2.181,2.46,1.498,3.97C33.548,15.902,32.456,16.559,31.313,16.559z"></path></g><g><path d="M59.788,46.705c-2.272,0-4.448-0.534-5.964-1.139c-0.041-0.016-0.082-0.034-0.122-0.052l-9.868-4.461    c-3.188-1.441-5.847-1.804-7.691-1.043c-1.539,0.634-2.137,1.926-2.142,1.938c-0.59,1.546-2.319,2.322-3.872,1.734    c-1.548-0.591-2.324-2.324-1.733-3.872c0.144-0.376,1.515-3.722,5.461-5.348c3.46-1.425,7.647-1.048,12.449,1.123l9.791,4.426    c0.585,0.219,5.832,2.08,7.33-1.233c0.191-0.423,0.321-0.771,0.409-1.049l-4.548-2.056c-0.203-0.092-2.037-0.951-3.532-2.669    c-2.242-2.578-2.681-5.76-1.234-8.96c0.683-1.51,2.46-2.182,3.969-1.499c1.51,0.682,2.181,2.459,1.498,3.969    c-0.92,2.038,0.731,3.195,1.798,3.703l6.208,2.807c0.359,0.163,0.685,0.395,0.954,0.684c0.845,0.903,1.96,3.082-0.054,7.541    C66.997,45.445,63.278,46.705,59.788,46.705z"></path></g><g><path d="M66.199,42.922c-0.413,0-0.833-0.086-1.233-0.267L15.104,20.118c-1.51-0.683-2.181-2.459-1.498-3.97    c0.683-1.509,2.462-2.181,3.969-1.498l49.862,22.537c1.51,0.683,2.181,2.459,1.498,3.97    C68.434,42.265,67.342,42.922,66.199,42.922z"></path></g></g></svg>