<svg xmlns="http://www.w3.org/2000/svg" xmlns:xlink="http://www.w3.org/1999/xlink" version="1.1" x="0px" y="0px" viewBox="0 0 24 24" enable-background="new 0 0 24 24" xml:space="preserve"><g><path fill-rule="evenodd" clip-rule="evenodd" d="M21.85,9.497C20.73,5.095,16.745,1.825,12,1.825s-8.731,3.27-9.851,7.672   C0.967,9.625,0.038,10.691,0.038,12c0,1.309,0.929,2.376,2.112,2.503c1.12,4.402,5.105,7.672,9.85,7.672s8.731-3.27,9.85-7.672   c1.182-0.127,2.112-1.195,2.112-2.503C23.962,10.691,23.032,9.625,21.85,9.497z M0.838,12c0-0.793,0.482-1.457,1.134-1.659   C1.883,10.882,1.825,11.434,1.825,12c0,0.566,0.058,1.118,0.148,1.659C1.321,13.457,0.838,12.794,0.838,12z M12,21.375   c-5.169,0-9.374-4.206-9.374-9.375c0-5.169,4.205-9.375,9.374-9.375S21.374,6.831,21.374,12C21.374,17.169,17.168,21.375,12,21.375   z M22.027,13.659c0.089-0.541,0.148-1.093,0.148-1.659c0-0.566-0.058-1.118-0.148-1.659c0.652,0.202,1.135,0.865,1.135,1.659   C23.162,12.794,22.679,13.457,22.027,13.659z"></path><path fill-rule="evenodd" clip-rule="evenodd" d="M15.467,11.069c0.932,0,1.656-0.725,1.656-1.639c0-0.914-0.724-1.656-1.656-1.656   c-0.914,0-1.656,0.742-1.656,1.656C13.811,10.344,14.552,11.069,15.467,11.069z"></path><path fill-rule="evenodd" clip-rule="evenodd" d="M12,18.226c2.691,0,4.933-1.793,5.675-4.243l-11.35-0.017   C7.032,16.433,9.309,18.226,12,18.226z"></path><path fill-rule="evenodd" clip-rule="evenodd" d="M8.36,11.069c0.915,0,1.656-0.725,1.656-1.639c0-0.914-0.742-1.656-1.656-1.656   c-0.897,0-1.656,0.742-1.656,1.656C6.704,10.344,7.463,11.069,8.36,11.069z"></path></g></svg>