<svg xmlns="http://www.w3.org/2000/svg" xmlns:xlink="http://www.w3.org/1999/xlink" version="1.1" x="0px" y="0px" viewBox="0 0 100 100" enable-background="new 0 0 100 100" xml:space="preserve"><g><g><path d="M18.177,62.859v26.612h3.973V62.859c0-4.744,2.846-8.948,7.251-10.708l-1.474-3.69    C22.004,50.83,18.177,56.478,18.177,62.859z M49.579,38.459c-1.878,0-3.561-1.054-4.389-2.743l-2.14,1.044    c1.232,2.511,3.734,4.071,6.529,4.071c2.795,0,5.298-1.559,6.529-4.069l-2.138-1.046C53.142,37.404,51.459,38.459,49.579,38.459z     M70.562,48.461l-1.473,3.69c4.405,1.76,7.251,5.964,7.251,10.708v26.612h3.972V62.859C80.312,56.478,76.485,50.83,70.562,48.461z     M32.876,63.33c-1.097,0-1.986,0.888-1.986,1.986v18.435c0,1.096,0.889,1.985,1.986,1.985c1.098,0,1.986-0.89,1.986-1.985V65.316    C34.863,64.218,33.974,63.33,32.876,63.33z M65.613,63.33c-1.098,0-1.986,0.888-1.986,1.986v18.435    c0,1.096,0.889,1.985,1.986,1.985s1.986-0.89,1.986-1.985V65.316C67.6,64.218,66.711,63.33,65.613,63.33z M66.16,40.7    c5.946,5.948,13.367,8.063,13.682,8.151l3.391,0.943l-0.943-3.39c-0.088-0.313-2.203-7.736-8.153-13.682    c-2.334-2.335-4.793-4.399-7.014-5.904v-1.94c0-5.484-2.79-10.428-7.462-13.224c-2.341-1.406-4.988-2.118-7.873-2.118h-4.754    c-6.736,0-12.676,4.215-14.778,10.485c-0.613,1.823-0.888,3.321-0.888,4.856v7.935c0,4.141,1.642,8.06,4.624,11.04    c2.979,2.978,6.902,4.619,11.042,4.619h4.754c5.941,0,11.093-3.476,13.638-8.533C65.67,40.192,65.908,40.448,66.16,40.7z     M67.122,32.812v-1.056c1.381,1.102,2.812,2.382,4.206,3.776c2.577,2.576,4.351,5.525,5.484,7.846    c-2.316-1.129-5.256-2.899-7.843-5.488c-0.74-0.74-1.441-1.494-2.112-2.246C67.023,34.725,67.122,33.781,67.122,32.812z     M46.192,13.541c0.05-0.004,0.101-0.007,0.151-0.009c0.086-0.006,0.171-0.011,0.257-0.013c0.144-0.005,0.287-0.009,0.432-0.009    h4.754c1.516,0,3.008,0.297,4.392,0.867c-1.943,3.818-5.884,6.285-10.271,6.285h-4.754c-1.516,0-3.009-0.296-4.392-0.866    C38.581,16.223,42.149,13.834,46.192,13.541z M63.15,32.812c0,6.443-5.097,11.686-11.363,11.686h-4.754    c-6.338,0-11.693-5.353-11.693-11.686v-7.935c0-0.435,0.036-0.873,0.105-1.333c1.806,0.715,3.742,1.087,5.708,1.087h4.754    c5.771,0,10.966-3.177,13.636-8.124c2.289,2.13,3.606,5.121,3.606,8.369V32.812z M47.259,78.665h4.29v-3.496h-4.29V78.665z     M47.259,71.674h4.29v-3.497h-4.29V71.674z M49.33,60.364l-8.604-8.604l-1.685,1.687l9.448,9.446    c0.233,0.233,0.537,0.35,0.841,0.35c0.305,0,0.609-0.116,0.842-0.35l9.449-9.446l-1.686-1.687L49.33,60.364z M45.352,27.625    c0-1.038-0.841-1.88-1.879-1.88c-1.037,0-1.878,0.842-1.878,1.88c0,1.037,0.841,1.878,1.878,1.878    C44.511,29.504,45.352,28.663,45.352,27.625z M55.709,25.746c-1.035,0-1.877,0.842-1.877,1.88c0,1.037,0.842,1.878,1.877,1.878    c1.039,0,1.878-0.841,1.878-1.878C57.587,26.587,56.748,25.746,55.709,25.746z"></path></g></g></svg>