<svg xmlns="http://www.w3.org/2000/svg" xmlns:xlink="http://www.w3.org/1999/xlink" version="1.1" x="0px" y="0px" viewBox="0 0 24 24" enable-background="new 0 0 24 24" xml:space="preserve"><g><path fill-rule="evenodd" clip-rule="evenodd" d="M21.851,9.497C20.731,5.095,16.745,1.825,12,1.825s-8.731,3.27-9.851,7.672   C0.967,9.625,0.037,10.692,0.037,12c0,1.309,0.93,2.375,2.112,2.503c1.12,4.402,5.105,7.672,9.85,7.672s8.731-3.27,9.85-7.672   c1.182-0.127,2.112-1.194,2.112-2.503C23.963,10.692,23.033,9.625,21.851,9.497z M0.838,12c0-0.794,0.483-1.457,1.135-1.659   C1.883,10.882,1.825,11.434,1.825,12c0,0.566,0.058,1.118,0.148,1.659C1.321,13.457,0.838,12.794,0.838,12z M12,21.375   c-5.169,0-9.374-4.206-9.374-9.375c0-5.169,4.205-9.375,9.374-9.375S21.374,6.831,21.374,12C21.374,17.169,17.169,21.375,12,21.375   z M22.027,13.659c0.089-0.541,0.148-1.093,0.148-1.659c0-0.566-0.058-1.118-0.148-1.659c0.652,0.202,1.135,0.866,1.135,1.659   C23.162,12.794,22.679,13.457,22.027,13.659z"></path><polygon fill-rule="evenodd" clip-rule="evenodd" points="15.821,6.143 15.307,6.914 18.355,8.97 18.869,8.236  "></polygon><polygon fill-rule="evenodd" clip-rule="evenodd" points="8.181,6.143 5.131,8.236 5.61,8.97 8.695,6.914  "></polygon><path fill-rule="evenodd" clip-rule="evenodd" d="M7.814,8.934c-0.478,0-0.919,0.441-0.919,0.956c0,0.514,0.441,0.917,0.919,0.917   c0.514,0,0.918-0.403,0.918-0.917C8.732,9.375,8.328,8.934,7.814,8.934z"></path><path fill-rule="evenodd" clip-rule="evenodd" d="M17.07,9.89c0-0.515-0.404-0.956-0.919-0.956c-0.477,0-0.918,0.441-0.918,0.956   c0,0.514,0.441,0.917,0.918,0.917C16.666,10.807,17.07,10.403,17.07,9.89z"></path><path fill-rule="evenodd" clip-rule="evenodd" d="M6.895,17.272v0.918c0,0,1.837-1.837,5.105-1.837c3.27,0,5.106,1.837,5.106,1.837   v-0.918c0,0-1.873-1.837-5.106-1.837C8.732,15.436,6.895,17.272,6.895,17.272z"></path></g></svg>