<svg height='100px' width='100px'  fill="#000000" xmlns="http://www.w3.org/2000/svg" viewBox="0 0 64 64" x="0px" y="0px"><g><path d="M57,40H53.266l4.707-19.769a1,1,0,0,0-.73-1.2l-4-1a1,1,0,0,0-1.208.707L46.236,40H43.974A4.948,4.948,0,0,0,45,37V34H42a5,5,0,0,0-4.913,4.137,4.944,4.944,0,0,0-7.135-1.072C32,28.309,32,28.2,32,28a4,4,0,0,0-4.352-3.983,5.979,5.979,0,0,0-11.3,0A4,4,0,0,0,12,28c0,.271.006.724,1.7,6.07A5,5,0,0,0,13,34H10v3a4.948,4.948,0,0,0,1.026,3H7a1,1,0,0,0-1,1c0,9.307,8.726,15.2,11,16.575V61a1,1,0,0,0,1,1H46a1,1,0,0,0,1-1V57.575C49.274,56.2,58,50.307,58,41A1,1,0,0,0,57,40ZM53.707,20.208l2.091.522L51.21,40h-2.9ZM39,39a3,3,0,0,1,3-3h1v1a3,3,0,0,1-3,3H39Zm-6-1a3.006,3.006,0,0,1,2.829,2H30.171A3.006,3.006,0,0,1,33,38Zm-5.171,2H22.171a3,3,0,0,1,5.658,0ZM14,28a1.965,1.965,0,0,1,2.723-1.856,1,1,0,0,0,1.344-.776,3.98,3.98,0,0,1,7.866,0,1,1,0,0,0,1.344.776A1.965,1.965,0,0,1,30,27.932c-.134.709-1.306,5.737-2.076,9.03A4.954,4.954,0,0,0,25,36a5.009,5.009,0,0,0-4.9,4H18V39a4.971,4.971,0,0,0-1.863-3.861C14.279,29.346,14.021,28.187,14,28Zm-2,9V36h1a3,3,0,0,1,3,3v1H15A3,3,0,0,1,12,37ZM45.73,56H41v2h4v2H19V58H32V56H18.27c-1.126-.666-6.847-4.289-9.224-10H20V44H8.385a12.413,12.413,0,0,1-.344-2H55.959a12.413,12.413,0,0,1-.344,2H34v2H54.954C52.577,51.711,46.856,55.334,45.73,56Z"></path><rect x="22" y="44" width="2" height="2"></rect><rect x="26" y="44" width="2" height="2"></rect><rect x="30" y="44" width="2" height="2"></rect><path d="M30.491,17.354a2.941,2.941,0,0,0-.17,1.834c.431,2.02,2.762,4.074,5.423,4.779A31.22,31.22,0,0,0,41.964,25H42a1,1,0,0,0,.812-1.583c-.011-.016-1.131-1.572-3.02-4.027-.839-1.091-3.067-3.66-5.628-3.964a3.678,3.678,0,0,0-2.256.443A3.256,3.256,0,0,1,30,13H28A5.045,5.045,0,0,0,30.491,17.354Zm3.19.043a1.907,1.907,0,0,1,.247.016c1.235.146,2.874,1.371,4.28,3.2.641.834,1.193,1.562,1.641,2.16a32.521,32.521,0,0,1-3.593-.737c-2.082-.551-3.738-2.131-3.979-3.262a.911.911,0,0,1,.351-.993A1.612,1.612,0,0,1,33.681,17.4Z"></path><rect x="18" y="30" width="2" height="2"></rect><rect x="23" y="32" width="2" height="2"></rect><path d="M10.945,18c.262.014,1.209.06,2.461.06,2.491,0,6.187-.184,8.061-1.175a5.644,5.644,0,0,0,2.569-3.295,5.291,5.291,0,0,0-.152-4.056C22.651,7.2,18.919,6.854,16.533,8.116c-2.851,1.507-6.068,7.727-6.425,8.431A1,1,0,0,0,10.945,18Zm5.829-5.525-3.048,1.778c.469-.741.982-1.486,1.5-2.164ZM18,14.074v1.711a31.473,31.473,0,0,1-3.363.251Zm4.134-1.1a3.709,3.709,0,0,1-1.6,2.145,4.273,4.273,0,0,1-.533.217V12.908l2.353-1.373A4.359,4.359,0,0,1,22.134,12.971Zm-.755-3.183-2.132,1.244,0,0-2.495-.624a4.067,4.067,0,0,1,.719-.522A4.568,4.568,0,0,1,21.379,9.788Z"></path><path d="M45,10h2a1,1,0,0,0,1-1,7.008,7.008,0,0,0-7-7H39a1,1,0,0,0-1,1A7.008,7.008,0,0,0,45,10ZM41,4a5.008,5.008,0,0,1,4.9,4H45a5.008,5.008,0,0,1-4.9-4Z"></path><path d="M33,10a3,3,0,1,0-3-3A3,3,0,0,0,33,10Zm0-4a1,1,0,1,1-1,1A1,1,0,0,1,33,6Z"></path><path d="M44,16a3,3,0,1,0,3-3A3,3,0,0,0,44,16Zm4,0a1,1,0,1,1-1-1A1,1,0,0,1,48,16Z"></path><rect x="37" y="29" width="2" height="2"></rect><rect x="40" y="12" width="2" height="2"></rect><rect x="24" y="3" width="2" height="2"></rect><rect x="45" y="25" width="2" height="2"></rect></g></svg>