<svg height='100px' width='100px'  fill="#000000" xmlns="http://www.w3.org/2000/svg" xmlns:xlink="http://www.w3.org/1999/xlink" version="1.1" preserveAspectRatio="none" x="0px" y="0px" viewBox="0 0 90 90"><defs><g id="a"><path fill="#000000" stroke="none" d=" M 36.1 35.5 Q 35.05 34.5 33.55 34.5 32.1 34.5 31.1 35.5 L 31.05 35.5 Q 30 36.55 30 38.05 L 30 43.05 Q 30 43.45 30.3 43.75 30.6 44.05 31 44.05 L 36.2 44.05 Q 36.6 44.05 36.9 43.75 37.2 43.45 37.2 43.05 L 37.2 38.05 Q 37.2 36.5 36.1 35.5 M 33.55 36.5 Q 34.25 36.5 34.75 36.95 35.2 37.4 35.2 38.05 L 35.2 42.05 32 42.05 32 38.05 Q 32 37.4 32.45 36.95 L 32.45 36.9 Q 32.9 36.5 33.55 36.5 M 69.25 46.15 Q 68.85 46.15 68.55 46.45 L 60.85 53.9 45.4 53.9 43.4 52.5 Q 43.1 52.3 42.8 52.3 L 31.15 52.3 Q 30.75 52.3 30.45 52.6 L 23.35 59.65 20.5 56.3 Q 20.3 56.1 20.05 56 19.8 55.9 19.55 56 19.25 56.05 19.05 56.25 L 11.2 64.05 Q 10.9 64.3 10.9 64.7 10.9 65.1 11.15 65.4 L 28.7 86 Q 28.9 86.2 29.15 86.3 29.4 86.4 29.7 86.35 29.95 86.25 30.15 86.05 L 38.05 78.2 Q 38.35 77.95 38.35 77.55 38.35 77.15 38.1 76.85 L 35.35 73.65 55.05 73.65 Q 55.45 73.65 55.75 73.35 L 77.4 51.75 Q 77.65 51.5 77.7 51.2 77.75 50.85 77.55 50.55 74.9 46.05 69.25 46.15 M 22.45 61.6 Q 22.5 61.7 22.6 61.8 22.65 61.85 22.7 61.9 L 36 77.45 29.55 83.9 13.25 64.8 19.7 58.4 22.45 61.6 M 34.15 71.65 Q 33.9 71.65 33.75 71.75 L 24.65 61.15 31.55 54.3 42.5 54.3 44.5 55.75 Q 44.75 55.9 45.05 55.9 L 58.9 55.9 54.75 60.25 43.25 61.45 Q 42.85 61.5 42.6 61.85 42.3 62.15 42.35 62.55 42.4 62.95 42.75 63.25 43.05 63.5 43.45 63.45 L 55.3 62.2 Q 55.65 62.15 55.95 61.9 L 69.7 48.15 Q 73.45 48.2 75.45 50.95 L 54.65 71.65 34.15 71.65 M 46.25 41.75 L 46.3 41.8 Q 46.35 41.85 46.35 41.9 46.4 42 46.45 42.05 47.25 43.15 47.25 44.55 L 47.25 50.05 Q 47.25 50.45 47.55 50.75 47.85 51.05 48.25 51.05 48.65 51.05 48.95 50.75 49.25 50.45 49.25 50.05 L 49.25 44.55 Q 49.25 42.55 48.15 40.95 47.95 40.65 47.75 40.45 47.75 40.4 47.7 40.4 47.35 40 46.95 39.7 45.55 38.7 43.95 38.7 42.25 38.7 40.95 39.7 L 40.9 39.7 Q 40.5 40 40.15 40.4 40.1 40.4 40.1 40.45 39.9 40.6 39.75 40.85 38.55 42.45 38.55 44.55 L 38.55 48.4 Q 38.55 48.8 38.85 49.1 39.15 49.4 39.55 49.4 39.95 49.4 40.25 49.1 40.55 48.8 40.55 48.4 L 40.55 44.55 Q 40.55 43.15 41.35 42.05 41.45 41.9 41.55 41.8 L 41.6 41.75 Q 41.8 41.5 42.1 41.35 L 42.1 41.3 Q 42.9 40.7 43.95 40.7 44.9 40.7 45.75 41.3 L 45.8 41.35 Q 46.05 41.5 46.25 41.75 M 54.25 34.5 Q 52.85 34.5 51.75 35.45 51.7 35.5 51.7 35.55 50.7 36.55 50.7 38.05 L 50.7 43.05 Q 50.7 43.45 51 43.75 51.3 44.05 51.7 44.05 L 56.85 44.05 Q 57.25 44.05 57.55 43.75 57.85 43.45 57.85 43.05 L 57.85 38.05 Q 57.85 36.55 56.75 35.5 55.75 34.5 54.25 34.5 M 54.25 36.5 Q 54.9 36.5 55.35 36.9 L 55.4 36.95 Q 55.85 37.4 55.85 38.05 L 55.85 42.05 52.7 42.05 52.7 38.05 Q 52.7 37.4 53.05 36.95 L 53.1 36.95 Q 53.6 36.5 54.25 36.5 M 63.7 23.5 L 63.75 23.5 57.85 17.55 57.85 12.95 Q 57.85 11.45 56.8 10.45 L 56.75 10.4 Q 55.75 9.35 54.25 9.35 52.8 9.35 51.75 10.4 L 51.7 10.4 Q 51.55 10.5 51.45 10.75 51.3 10.9 51.2 11.05 L 46.5 6.35 Q 46.15 6 45.9 5.8 45.85 5.75 45.8 5.75 43.6 4.15 41.45 6.35 L 24.25 23.5 Q 23.2 24.55 23.05 25.65 23 25.7 23 25.8 23 25.95 23 26.05 23 26.15 23 26.25 23.1 27.45 24.25 28.6 L 25.8 30.15 25.8 51.15 Q 25.8 51.55 26.1 51.85 26.4 52.15 26.8 52.15 27.2 52.15 27.5 51.85 27.8 51.55 27.8 51.15 L 27.8 30.75 60.1 30.75 60.1 48.4 Q 60.1 48.8 60.4 49.1 60.7 49.4 61.1 49.4 61.5 49.4 61.8 49.1 62.1 48.8 62.1 48.4 L 62.1 30.25 63.7 28.6 Q 64.9 27.45 64.95 26.2 L 64.95 26.15 Q 64.95 26 64.95 25.8 64.95 25.7 64.95 25.65 64.75 24.55 63.7 23.5 M 55.35 11.8 L 55.4 11.85 Q 55.85 12.3 55.85 12.95 L 55.85 17.95 Q 55.85 18.35 56.15 18.65 L 62.3 24.9 Q 62.45 25.05 62.55 25.15 L 25.45 25.15 Q 25.55 25.05 25.65 24.9 L 42.85 7.75 Q 43.75 6.85 44.65 7.35 44.85 7.5 45.1 7.75 L 51 13.65 Q 51.3 13.95 51.7 13.95 52.1 13.95 52.4 13.65 52.7 13.35 52.7 12.95 52.7 12.35 53.05 11.9 53.1 11.8 53.2 11.75 L 53.2 11.7 Q 53.65 11.35 54.25 11.35 54.9 11.35 55.35 11.8 M 62.35 27.15 L 60.8 28.75 27.2 28.75 25.6 27.15 62.35 27.15 Z"></path></g></defs><g transform="matrix( 1, 0, 0, 1, 0,0) "><use xlink:href="#a"></use></g></svg>