<svg height='100px' width='100px'  fill="#000000" xmlns="http://www.w3.org/2000/svg" xmlns:xlink="http://www.w3.org/1999/xlink" version="1.1" x="0px" y="0px" viewBox="0 0 70 70" style="enable-background:new 0 0 70 70;" xml:space="preserve"><style type="text/css">
	.st0{fill:none;stroke:#000000;stroke-width:2;stroke-linecap:round;stroke-linejoin:round;stroke-miterlimit:10;}
	.st1{fill:none;}
</style><g><g><g><path d="M56.7597656,53.3349609H13.25c-1.7919922,0-3.25-1.4580078-3.25-3.25V19.9150391c0-1.7919922,1.4580078-3.25,3.25-3.25     h43.5097656c1.7866211,0,3.2402344,1.4580078,3.2402344,3.25v30.1699219     C60,51.8769531,58.5463867,53.3349609,56.7597656,53.3349609z M13.25,18.6650391c-0.6894531,0-1.25,0.5605469-1.25,1.25     v30.1699219c0,0.6894531,0.5605469,1.25,1.25,1.25h43.5097656c0.684082,0,1.2402344-0.5605469,1.2402344-1.25V19.9150391     c0-0.6894531-0.5561523-1.25-1.2402344-1.25H13.25z"></path></g></g><g><g><path d="M31.5205078,47.2084961H16.6875c-0.5522461,0-1-0.4477539-1-1v-8.0419922     c0-2.2285156,1.8129883-4.0415039,4.0415039-4.0415039h8.75c2.2285156,0,4.0415039,1.8129883,4.0415039,4.0415039v8.0419922     C32.5205078,46.7607422,32.0727539,47.2084961,31.5205078,47.2084961z M17.6875,45.2084961h12.8330078v-7.0419922     c0-1.1254883-0.9160156-2.0415039-2.0415039-2.0415039h-8.75c-1.1254883,0-2.0415039,0.9160156-2.0415039,2.0415039V45.2084961z"></path></g></g><g><g><path d="M24.1040039,33.125c-2.8486328,0-5.1665039-2.3178711-5.1665039-5.1665039     c0-2.8491211,2.3178711-5.1669922,5.1665039-5.1669922s5.1665039,2.3178711,5.1665039,5.1669922     C29.2705078,30.8071289,26.9526367,33.125,24.1040039,33.125z M24.1040039,24.7915039     c-1.7460938,0-3.1665039,1.4208984-3.1665039,3.1669922S22.3579102,31.125,24.1040039,31.125     s3.1665039-1.4204102,3.1665039-3.1665039S25.8500977,24.7915039,24.1040039,24.7915039z"></path></g></g><g><g><path d="M53.3125,29.3349609h-10c-0.5522461,0-1-0.4477539-1-1s0.4477539-1,1-1h10c0.5522461,0,1,0.4477539,1,1     S53.8647461,29.3349609,53.3125,29.3349609z"></path></g></g><g><g><path d="M53.3125,37.8349609h-16.875c-0.5522461,0-1-0.4477539-1-1s0.4477539-1,1-1h16.875c0.5522461,0,1,0.4477539,1,1     S53.8647461,37.8349609,53.3125,37.8349609z"></path></g></g><g><g><path d="M53.3125,46.3349609h-16.875c-0.5522461,0-1-0.4477539-1-1s0.4477539-1,1-1h16.875c0.5522461,0,1,0.4477539,1,1     S53.8647461,46.3349609,53.3125,46.3349609z"></path></g></g></g></svg>