<svg height='100px' width='100px'  fill="#000000" xmlns="http://www.w3.org/2000/svg" xmlns:xlink="http://www.w3.org/1999/xlink" version="1.1" x="0px" y="0px" viewBox="0 0 64 64" style="enable-background:new 0 0 64 64;" xml:space="preserve"><g><path d="M32.16,17.219L46,29.329l13.84-12.11c2.009-1.757,3.16-4.296,3.16-6.964C63,5.151,58.849,1,53.745,1h-0.326   c-2.472,0-4.796,0.962-6.544,2.71L46,4.585L45.125,3.71C43.377,1.962,41.053,1,38.581,1h-0.326C33.151,1,29,5.151,29,10.254   C29,12.923,30.151,15.461,32.16,17.219z M38.255,3h0.326c1.938,0,3.76,0.754,5.13,2.125L46,7.415l2.289-2.29   C49.659,3.754,51.481,3,53.419,3h0.326c4,0,7.255,3.254,7.255,7.254c0,2.092-0.902,4.082-2.477,5.459L46,26.671L33.477,15.714   C31.902,14.336,31,12.346,31,10.254C31,6.254,34.255,3,38.255,3z"></path><path d="M43,21h6v-3h3v-6h-3V9h-6v3h-3v6h3V21z M42,16v-2h3v-3h2v3h3v2h-3v3h-2v-3H42z"></path><path d="M60,41H33V29.899c0-2.764-1.632-5.274-4.157-6.396L24,21.35V19c1.103,0,2-0.897,2-2v-2c0-1.103-0.897-2-2-2h-0.219   l-0.999-4H11.219l-0.999,4H10c-1.103,0-2,0.897-2,2v2c0,1.103,0.897,2,2,2v2.35l-4.843,2.152C2.632,24.625,1,27.136,1,29.899V58   c0,2.757,2.243,5,5,5h22h32c1.654,0,3-1.346,3-3V44C63,42.346,61.654,41,60,41z M61,44v7H51v-8h9C60.552,43,61,43.449,61,44z    M39,51v-8h10v8H39z M49,53v8H39v-8H49z M25,48.161C23.105,49.939,20.157,51,17,51c-5.514,0-10-3.14-10-7s4.486-7,10-7   c4.194,0,7.865,1.816,9.332,4.508C25.53,42.047,25,42.963,25,44V48.161z M27,44c0-0.551,0.448-1,1-1h9v8H27V44z M28.322,41   c-1.667-3.567-6.19-6-11.322-6c-6.617,0-12,4.038-12,9s5.383,9,12,9c2.977,0,5.822-0.84,8-2.295V55H3V33h28v8H28.322z M16,15v2h-2   v-2H16z M18,15h2v2h-2V15z M24,17h-2v-2h2V17z M12.781,11h8.438l0.501,2h-9.439L12.781,11z M9.999,15L9.999,15H12v2h-2L9.999,15z    M5.97,25.33L12,22.65V19h10v3.65l6.03,2.681c1.804,0.801,2.97,2.595,2.97,4.569V31H3v-1.101C3,27.925,4.166,26.132,5.97,25.33z    M3,58v-1h22v3c0,0.352,0.072,0.686,0.184,1H6C4.346,61,3,59.654,3,58z M27,60v-7h10v8h-9C27.448,61,27,60.551,27,60z M60,61h-9v-8   h10v7C61,60.551,60.552,61,60,61z"></path><path d="M56,54c-1.654,0-3,1.346-3,3s1.346,3,3,3s3-1.346,3-3S57.654,54,56,54z M56,58c-0.552,0-1-0.449-1-1s0.448-1,1-1   s1,0.449,1,1S56.552,58,56,58z"></path><path d="M56,50c1.654,0,3-1.346,3-3s-1.346-3-3-3s-3,1.346-3,3S54.346,50,56,50z M56,46c0.552,0,1,0.449,1,1s-0.448,1-1,1   s-1-0.449-1-1S55.448,46,56,46z"></path><path d="M44,60c1.654,0,3-1.346,3-3s-1.346-3-3-3s-3,1.346-3,3S42.346,60,44,60z M44,56c0.552,0,1,0.449,1,1s-0.448,1-1,1   s-1-0.449-1-1S43.448,56,44,56z"></path><path d="M44,44c-1.654,0-3,1.346-3,3s1.346,3,3,3s3-1.346,3-3S45.654,44,44,44z M44,48c-0.552,0-1-0.449-1-1s0.448-1,1-1   s1,0.449,1,1S44.552,48,44,48z"></path><path d="M32,54c-1.654,0-3,1.346-3,3s1.346,3,3,3s3-1.346,3-3S33.654,54,32,54z M32,58c-0.552,0-1-0.449-1-1s0.448-1,1-1   s1,0.449,1,1S32.552,58,32,58z"></path><path d="M32,44c-1.654,0-3,1.346-3,3s1.346,3,3,3s3-1.346,3-3S33.654,44,32,44z M32,48c-0.552,0-1-0.449-1-1s0.448-1,1-1   s1,0.449,1,1S32.552,48,32,48z"></path></g></svg>