<svg height='100px' width='100px'  fill="#000000" xmlns="http://www.w3.org/2000/svg" xmlns:xlink="http://www.w3.org/1999/xlink" version="1.1" x="0px" y="0px" viewBox="0 0 100 100" style="enable-background:new 0 0 100 100;" xml:space="preserve"><path d="M46.4067383,83.8095703l1.3642578-54.1235352c0.1333008-5.2788086-1.8081055-10.2514648-5.4658203-14.0029297  C38.7314453,12.0185547,33.9667969,10,28.8886719,10s-9.8427734,2.0185547-13.4165039,5.6835938  c-3.6577148,3.7509766-5.5991211,8.7236328-5.4658203,14.0024414l1.3647461,54.1235352  C11.4584961,87.2807617,14.2084961,90,17.6318359,90h22.5136719C43.5688477,90,46.3193359,87.2807617,46.4067383,83.8095703z   M12.3045654,41.5h33.168335l-0.1968994,7.8125H12.5015259L12.3045654,41.5z M45.2255859,51.3125l-0.1969604,7.8125H12.7489624  l-0.1970215-7.8125H45.2255859z M12.7993774,61.125h32.178833l-0.1968994,7.8125H12.9963989L12.7993774,61.125z M45.5233154,39.5  H12.2540894l-0.0849609-3.3693237c0.0073242-0.0411377,0.0285034-0.0766602,0.0305786-0.1194458  c0.4506836-9.0249023,7.7768555-16.0947266,16.6782227-16.0947266c4.4882812,0,8.699707,1.7841797,11.859375,5.0244141  c3.2353516,3.3183594,4.9526367,7.7177734,4.8349609,12.3876953c-0.0002441,0.0101929,0.0050049,0.0186768,0.0050659,0.0288086  L45.5233154,39.5z M13.046814,70.9375h31.684082L44.5339966,78.75H13.2438354L13.046814,70.9375z M16.9038086,17.0795898  C20.0981445,13.8041992,24.3544922,12,28.8886719,12s8.7905273,1.8041992,11.9848633,5.0795898  c3.0671997,3.145752,4.7661133,7.2560425,4.8769531,11.6502686c-0.8908081-1.8902588-2.0805054-3.645874-3.581543-5.1854248  c-3.5390625-3.6289062-8.2592773-5.6279297-13.2910156-5.6279297c-7.4020386,0-13.8236084,4.3629761-16.8493042,10.7387085  C12.1569824,24.2890625,13.8540039,20.2075806,16.9038086,17.0795898z M40.1455078,88H17.6318359  c-2.3295898,0-4.2016602-1.862793-4.2617188-4.2412109L13.2942505,80.75h31.1893311l-0.0758667,3.0087891  C44.3476562,86.137207,42.4755859,88,40.1455078,88z"></path><path d="M88.6289062,83.8095703l1.3647461-54.1235352c0.1333008-5.2788086-1.8081055-10.2514648-5.4658203-14.0024414  C80.9541016,12.0185547,76.1894531,10,71.1113281,10s-9.8427734,2.0185547-13.4165039,5.6831055  c-3.6577148,3.7514648-5.5991211,8.7241211-5.4658203,14.0029297l1.3642578,54.1235352  C53.6806641,87.2807617,56.4311523,90,59.8544922,90h22.5136719C85.7915039,90,88.5415039,87.2807617,88.6289062,83.8095703z   M54.5270996,41.5h33.168335l-0.1969604,7.8125H54.723999L54.5270996,41.5z M87.4480591,51.3125l-0.1970215,7.8125H54.9713745  l-0.1969604-7.8125H87.4480591z M55.0217896,61.125h32.178833l-0.1970215,7.8125H55.218689L55.0217896,61.125z M87.7459106,39.5  H54.4766846l-0.0849609-3.3699951c0.0072021-0.0408936,0.0280762-0.0762329,0.0301514-0.1187744  c0.4511719-9.0249023,7.7773438-16.0947266,16.6782227-16.0947266c4.4887695,0,8.7006836,1.784668,11.8598633,5.0249023  c3.2353516,3.3178711,4.9521484,7.7172852,4.8344727,12.387207c-0.0003052,0.0109253,0.0053711,0.0200806,0.0054321,0.0308838  L87.7459106,39.5z M55.269104,70.9375h31.684082L86.7561646,78.75H55.4660034L55.269104,70.9375z M59.1264648,17.0795898  C62.3208008,13.8041992,66.5771484,12,71.1113281,12s8.7905273,1.8041992,11.9848633,5.0795898  c3.0672607,3.145874,4.7662354,7.2563477,4.8769531,11.6506348c-0.890686-1.8903198-2.0802002-3.6459351-3.5810547-5.1853027  c-3.5390625-3.6293945-8.2597656-5.628418-13.2919922-5.628418c-7.4014893,0-13.822876,4.362793-16.8488159,10.7382812  C54.3797607,24.2889404,56.0767822,20.2074585,59.1264648,17.0795898z M55.5922852,83.7587891L55.5164185,80.75h31.1893311  l-0.0758667,3.0087891C86.5698242,86.137207,84.6977539,88,82.3681641,88H59.8544922  C57.5244141,88,55.6523438,86.137207,55.5922852,83.7587891z"></path></svg>