<svg height='100px' width='100px'  fill="#000000" xmlns="http://www.w3.org/2000/svg" xmlns:xlink="http://www.w3.org/1999/xlink" version="1.1" x="0px" y="0px" viewBox="0 0 64 64" enable-background="new 0 0 64 64" xml:space="preserve"><path d="M31.758,45.126l-9.93-9.927V21.266v-0.5v-3.641c0-1.831-1.489-3.32-3.32-3.32H6.086c-1.831,0-3.32,1.489-3.32,3.32v3.641  v0.5v17.49c0,0.052,0.003,0.104,0.009,0.172c-0.06,2.633,0.928,5.104,2.783,6.957L18.28,58.607c1.276,1.276,2.829,2.103,4.465,2.503  c0.023,0.009,0.049,0.011,0.073,0.018c0.724,0.171,1.461,0.267,2.201,0.267c2.44,0,4.882-0.93,6.74-2.787  c1.624-1.624,2.583-3.731,2.756-5.996c0.001-0.012,0.001-0.022,0.002-0.033c0.017-0.236,0.034-0.472,0.034-0.711  C34.552,49.32,33.56,46.927,31.758,45.126z M6.086,15.305h12.422c1.004,0,1.82,0.816,1.82,1.82v3.391H4.267v-3.391  C4.267,16.121,5.083,15.305,6.086,15.305z M4.276,38.929c0-0.012-0.008-0.161-0.009-0.173v-4.15  c4.219,0.002,7.652,3.436,7.652,7.656c0,2.101-0.854,4.07-2.353,5.51l-2.947-2.947C5.057,43.263,4.225,41.181,4.276,38.929z   M10.626,48.832c1.78-1.721,2.792-4.068,2.792-6.57c0-5.048-4.105-9.154-9.152-9.156v-11.09h16.062V35.51  c0,0.199,0.079,0.39,0.22,0.53l10.149,10.146c1.411,1.411,2.223,3.255,2.333,5.23c-0.86-0.297-1.768-0.46-2.681-0.46  c-4.516,0-8.189,3.673-8.189,8.188c0,0.074,0.007,0.148,0.009,0.223c-1.031-0.39-2-0.992-2.829-1.821L10.626,48.832z M30.699,57.547  c-1.898,1.898-4.519,2.638-6.986,2.234c-0.02-0.212-0.053-0.422-0.053-0.636c0-3.688,3.001-6.688,6.689-6.688  c0.899,0,1.791,0.193,2.614,0.543C32.722,54.715,31.945,56.3,30.699,57.547z"></path><path d="M61.196,41.351c0.19-2.665-0.723-5.396-2.755-7.428l-9.93-9.927V10.063v-0.5V5.921c0-1.831-1.49-3.32-3.321-3.32H32.768  c-1.83,0-3.318,1.489-3.318,3.32v3.641v0.5v17.49c0,0.058,0.003,0.115,0.009,0.172c-0.06,2.632,0.928,5.103,2.781,6.957  l12.722,12.723c1.275,1.275,2.829,2.103,4.466,2.502c0.022,0.009,0.047,0.011,0.07,0.018c0.725,0.171,1.463,0.267,2.203,0.267  c2.441,0,4.883-0.929,6.741-2.786c1.665-1.666,2.577-3.8,2.75-5.981C61.195,41.398,61.195,41.375,61.196,41.351z M32.768,4.102  H45.19c1.004,0,1.821,0.816,1.821,1.82v3.391H30.95V5.921C30.95,4.918,31.766,4.102,32.768,4.102z M30.958,27.708  c0-0.004-0.007-0.151-0.008-0.155v-4.15c4.219,0.002,7.652,3.436,7.652,7.656c0,2.101-0.854,4.07-2.354,5.51l-2.947-2.947  C31.739,32.06,30.908,29.978,30.958,27.708z M37.309,37.629c1.779-1.72,2.793-4.067,2.793-6.57c0-5.047-4.105-9.153-9.152-9.156  v-11.09h16.062v13.494c0,0.199,0.079,0.39,0.22,0.53l10.149,10.146c1.451,1.451,2.221,3.325,2.327,5.229  c-0.858-0.295-1.764-0.458-2.676-0.458c-4.517,0-8.19,3.673-8.19,8.188c0,0.073,0.008,0.148,0.01,0.223  c-1.031-0.391-2-0.993-2.829-1.821L37.309,37.629z M57.382,46.344c-1.899,1.897-4.52,2.638-6.987,2.233  c-0.02-0.212-0.053-0.424-0.053-0.635c0-3.688,3.001-6.688,6.69-6.688c0.897,0,1.787,0.191,2.608,0.539  C59.406,43.459,58.659,45.065,57.382,46.344z"></path></svg>