<svg height='100px' width='100px'  fill="#000000" xmlns="http://www.w3.org/2000/svg" viewBox="0 0 64 64" x="0px" y="0px"><g><rect x="12" y="41" width="2" height="2"></rect><rect x="12" y="45" width="2" height="2"></rect><rect x="10" y="43" width="2" height="2"></rect><rect x="14" y="43" width="2" height="2"></rect><rect x="20" y="49" width="2" height="2"></rect><rect x="20" y="53" width="2" height="2"></rect><rect x="18" y="51" width="2" height="2"></rect><rect x="22" y="51" width="2" height="2"></rect><rect x="31" y="43" width="2" height="2"></rect><rect x="31" y="47" width="2" height="2"></rect><rect x="29" y="45" width="2" height="2"></rect><rect x="33" y="45" width="2" height="2"></rect><rect x="41" y="49" width="2" height="2"></rect><rect x="41" y="53" width="2" height="2"></rect><rect x="39" y="51" width="2" height="2"></rect><rect x="43" y="51" width="2" height="2"></rect><rect x="50" y="41" width="2" height="2"></rect><rect x="50" y="45" width="2" height="2"></rect><rect x="48" y="43" width="2" height="2"></rect><rect x="52" y="43" width="2" height="2"></rect><rect x="9" y="31" width="2" height="2"></rect><rect x="13" y="31" width="2" height="2"></rect><rect x="53" y="31" width="2" height="2"></rect><rect x="49" y="31" width="2" height="2"></rect><path d="M61,27H54V10a1,1,0,0,0-1-1H47a1,1,0,0,0-1,1V27H43.72L42,21.839V18a1,1,0,0,0-1-1H35a1,1,0,0,0-1,1v3.839L32.28,27H32V11a6,6,0,0,0-12,0V27H18V10a1,1,0,0,0-1-1H11a1,1,0,0,0-1,1V27H3a1,1,0,0,0-1,1v8a1,1,0,0,0,1,1H4.118l1.9,15.124a.994.994,0,0,0,.318.614c1.12,1.023,2.007,1.96,2.946,2.952.921.973,1.874,1.978,3.045,3.048A1,1,0,0,0,13,59H52a1,1,0,0,0,.675-.262c1.172-1.07,2.127-2.076,3.051-3.05.94-.991,1.83-1.927,2.949-2.95A1,1,0,0,0,59,52.062L59.939,37H61a1,1,0,0,0,1-1V28A1,1,0,0,0,61,27ZM48,11h4V27H48ZM36,19h4v2H36Zm-.279,4h4.558l1.333,4H34.388ZM22,25h4V23H22V21h4V19H22V17h4V15H22V13h4V11H22a4,4,0,0,1,8,0V27H22Zm23,4V39H19V29ZM12,11h4V27H12ZM4,33H7V31H4V29H17v6H4ZM57.027,51.537c-1.038.969-1.908,1.885-2.753,2.775-.86.906-1.676,1.766-2.665,2.688H13.391c-.988-.921-1.8-1.78-2.659-2.686s-1.726-1.823-2.778-2.8L6.134,37H17v3a1,1,0,0,0,1,1H46a1,1,0,0,0,1-1V37H57.936ZM47,35V29H60v2H57v2h3v2Z"></path></g></svg>