<svg height='100px' width='100px'  fill="#000000" xmlns="http://www.w3.org/2000/svg" viewBox="0 0 68 48" x="0px" y="0px"><path fill="#000000" fill-rule="evenodd" d="M330,354 C311.222319,354 296,338.777681 296,320 L296,308 C296,306.895431 296.895431,306 298,306 L362,306 C363.104569,306 364,306.895431 364,308 L364,320 C364,338.777681 348.777681,354 330,354 Z M300,310 L300,316 L305,316 C306.104569,316 307,316.895431 307,318 C307,319.104569 306.104569,320 305,320 L300,320 C300,322.0559 300.206804,324.063499 300.600744,326.003129 C300.733706,326.001044 300.866794,326 301,326 C314.381695,326 325.30777,336.51376 325.968372,349.731426 C327.287032,349.908548 328.632836,350 330,350 C331.367164,350 332.712968,349.908548 334.031628,349.731426 C334.69223,336.51376 345.618305,326 359,326 C359.133206,326 359.266294,326.001044 359.399256,326.003129 C359.793196,324.063499 360,322.0559 360,320 L355,320 C353.895431,320 353,319.104569 353,318 C353,316.895431 353.895431,316 355,316 L360,316 L360,310 L300,310 Z M301.710527,330.011794 C304.95406,339.178857 312.515477,346.26648 321.895603,348.892872 C320.861766,338.51602 312.274075,330.362996 301.710527,330.011794 Z M338.104397,348.892872 C347.484523,346.26648 355.04594,339.178857 358.289473,330.011794 C347.725925,330.362996 339.138234,338.51602 338.104397,348.892872 Z M347,316 C348.104569,316 349,316.895431 349,318 C349,319.104569 348.104569,320 347,320 L341,320 C339.895431,320 339,319.104569 339,318 C339,316.895431 339.895431,316 341,316 L347,316 Z M333,316 C334.104569,316 335,316.895431 335,318 C335,319.104569 334.104569,320 333,320 L327,320 C325.895431,320 325,319.104569 325,318 C325,316.895431 325.895431,316 327,316 L333,316 Z M319,316 C320.104569,316 321,316.895431 321,318 C321,319.104569 320.104569,320 319,320 L313,320 C311.895431,320 311,319.104569 311,318 C311,316.895431 311.895431,316 313,316 L319,316 Z" transform="translate(-296 -306)"></path></svg>